<svg id="图层_1" data-name="图层 1" xmlns="http://www.w3.org/2000/svg" viewBox="0 0 1540.69 1030.38"><title>butterfly</title><path d="M10.12,100.55,11,71.7C14.57,58.85,18,46,29.1,37c2.43-2,4.59-3.13,7.81-3C86.4,35.64,135.48,40.48,183.78,52,263,71,334.86,106,402.13,151.09c139.43,93.37,256.32,209.83,353.62,346.27,1.74,2.43,3.63,4.76,5.66,7.42,3-4.51,1.14-7.57-1-10.27-2.46-3.14-5.35-6-8.08-8.88-11.24-12-11.15-19.22,1.71-29.13,5.73-4.41,6.48-8.56,4.38-15a646.49,646.49,0,0,0-37.18-91.08c-25.07-49.79-53.6-97.33-92.05-138.2-14.57-15.49-30.54-29-51.85-34.82-8.49-2.34-16.27-7-21-15.07-2-3.48-4.32-7.85-1.65-11.2s7.06-1.12,10.49.14c14.2,5.24,26.65,13.48,38.19,23.11,23.08,19.26,43.25,41.32,61.45,65.19,45.42,59.6,77.69,126.19,104,196,1.37,3.64,1.34,8.92,7.76,8.27,6.14-.62,12.16.82,15.59-7.5,8.73-21.21,18.29-42.1,28.18-62.8,26.2-54.79,55.3-107.87,94.34-154.84C937.35,191.34,963.06,167.43,995,151c3.13-1.61,7-5.29,10.14-2.36,3.37,3.09,1.61,8.1.43,12.14a16.17,16.17,0,0,1-7.47,9.12c-4.09,2.49-8.2,5.26-12.68,6.77-22.62,7.63-39.77,22.62-54.76,40.39C898.47,255.18,872,297.11,848.4,341c-16.67,31-32.5,62.5-43.56,96.12-2.65,8.07-2.7,13.84,5.4,19.61,11.1,7.9,11.19,17,2.42,27.38-1.38,1.63-3,3.05-4.35,4.71-3.1,3.82-9.48,9.95-6.62,12,4.64,3.39,9.05-3.42,11.93-7.39,7-9.71,13.17-20.08,20-30,29.53-42.74,63.51-81.85,98.5-120.11,83.3-91.08,176.4-170.21,284.43-230.74,77.55-43.45,160.12-71.72,249.15-79.38,13.8-1.19,27.64-1.91,41.46-2.85l28.85.84c3.95,7.69,9.48,14.61,11,23.46,1.1,6.25,2.5,12.46,3.77,18.68l-1,33.66a37,37,0,0,0-1.55,5.33c-3.84,27.77-12.75,54-24.5,79.27-19.78,42.61-46.61,80.9-73.41,119.17-6.48,9.25-12,18-9,30,.68,2.69-.23,5.83-.63,8.73-2,14.58-9,27.28-15.48,40.15-7.23,14.38-13.5,29.11-15.82,45.14-2,14-3.26,28.12-5.21,42.14-1.63,11.72-3.48,23.93-13.87,31.32-6.88,4.9-8.12,10.67-8.33,18.27-1.12,40.46-9.56,77.67-47.34,101-2.11,1.3-2.58,2.4-.44,4.1,12.38,9.89,14.22,24.09,14.63,38.34.74,26,2,51.74,14.44,75.53,2.74,5.25,4,11.48,1,17-6.14,11.39-5.91,23.6-5.82,35.92,0,5,1.51,11.55-2.12,14.69-7.78,6.72-5.43,13.5-2.8,21a21,21,0,0,1,.94,6.33c.65,24.86-4.12,47.43-27,62.06-3,1.94-4.2,4.73-4.72,8-.77,4.75-1.25,9.54-2.08,14.27-3.76,21.4-18.54,34.74-34.77,46.89-1.77,1.32-4.53,1.66-6.87,1.82-6.29.42-11.17,3.26-15.18,7.92-4.35,5.07-8.74,10.1-13,15.21-4.66,5.56-10.48,9.31-17.68,10-11.1,1.12-20.35,6-28.84,12.81-6.15,5-12.89,8.69-21.07,8.66-10.45,0-19.94,3.15-29,8.05-8.22,4.44-16.5,8.77-24.74,13.18a36.14,36.14,0,0,1-21.64,4.27,189.94,189.94,0,0,0-58.22,2.48c-17,3.32-32.87,2.07-46.77-9.8a32.15,32.15,0,0,0-18.16-7.84c-17-1.44-30-10.21-41.33-22.22a224.15,224.15,0,0,1-31.78-44.12C872,901.67,838.69,828.42,814,751.35l-3.87-12.1c-2.35,5.63-2,10-2.24,14.16-1.48,29.09-2.53,58.2-4.37,87.26-1.16,18.33-5.95,35.75-16.63,51.16-2.73,3.94-4.53,4-7.38-.05C772,881,768.19,868.86,766,856.15c-5.21-29.87-5.45-60.07-5.57-90.26,0-8.88.47-17.76.73-26.63l-2.56-.23c-.9,2.41-1.81,4.81-2.69,7.23-21.22,58.47-43,116.73-71.89,172-17.71,33.84-36.51,67.05-59.19,97.9-9.77,13.28-22.1,22.24-39.13,23.66-6.78.56-12.91,3.45-18.39,7.4-8.73,6.29-17.94,11.47-28.62,13.61l-11.22-.33a198.37,198.37,0,0,0-38.07-6.08,33.84,33.84,0,0,0-19.63,4.39l-16-.47c-13.41-4.76-25.35-12.41-37.72-19.21-7.3-4-14.9-8.05-23.48-6.66-10.91,1.77-19.15-2.41-26.71-9.5-6.29-5.9-13.06-11.63-22-12.11-12.58-.68-21.31-7.35-29.21-16.17-6.43-7.18-13.31-13.88-22.38-17.84-27.84-12.15-42.73-34.2-48.21-63.38-.54-2.86-.89-5.32-3.87-7.32-23.84-16-33.73-47.23-23.75-74.08.88-2.36,2.8-4.56.08-7.22-6.8-6.64-7.66-15.5-8.81-24.31-1.43-11-.53-22.55-6.72-32.62-1.49-2.43-.05-4.64,1-6.76a82.53,82.53,0,0,0,8.53-30.68c1.4-16,2.53-32,4.17-47.9s4.06-32,17.11-43.64c4-3.55.34-4.74-1.83-6.43-34.49-26.92-49.43-62.53-46.92-105.84.16-2.7.82-5.32-2.18-7-12.15-6.92-16-18.84-18.34-31.4-2.64-14.44-4.71-29-7-43.49-3.37-21.79-14.15-40.72-23.2-60.3-4.76-10.29-9.14-20.76-7.68-32.3,2.15-17.05-4.1-30.73-15.33-42.86-3.81-4.11-7.3-8.52-10.92-12.81-34.78-41.13-59.68-87.64-76-138.89C16.4,138.92,13.5,119.7,10.12,100.55ZM362.48,239.63c1.62,2.22,3.1,4.38,4.7,6.44,17.92,23,32.11,47.86,37.87,76.83.77,3.87,3.14,5.81,6.18,7.74,14.64,9.31,29.43,18.41,43.68,28.29,17.78,12.33,33.7,26.88,41,47.9,6.39,18.33,18.72,29,36.67,34.81,26.49,8.6,51.21,21.13,75.67,34.36,29.14,15.75,56.54,34.42,85.72,50,15.39,8.24,31.66,14,49.45,14.76,5.54.23,6.86-1.55,6.33-6.73a84.48,84.48,0,0,0-11.07-34c-8.29-14.44-18.88-27.16-29.89-39.55-27.71-31.18-58.33-59.49-87.73-89-27.88-28-54.86-56.87-84.35-83.3-46.56-41.73-101.07-56.63-162.25-50.9C370.63,237.69,366.45,236.8,362.48,239.63Zm807-4.42c-59.35-3.7-107.86,17-149.88,55.16-14.64,13.31-29.06,26.84-42.39,41.44C942.05,370.26,906.57,408.37,869.48,445a248.51,248.51,0,0,0-34.12,41.33c-9.24,14.23-16.29,29.3-18.88,46.34-1,6.64-.42,8.65,7.29,8,26.91-2.4,49.46-14.89,70.79-29.78,31-21.66,64.14-39.26,98.66-54.52,18.54-8.2,36.76-17.15,55-26,5.23-2.54,10.37-5.35,12.5-11.66,4.5-13.34,12.3-24.82,21.32-35.48,18.36-21.7,40.67-38.49,65.59-51.88,5.24-2.82,8.71-6.38,10.42-12.3,8-27.61,18-54.23,38.51-75.53,4.49-4.67,2-7.19-3.37-7.49C1184.68,235.48,1176.13,235.4,1169.46,235.21ZM745.24,553.07c-26.75-2.52-48.28-12.76-68.59-26-7.83-5.09-15.64-10.26-23.06-15.92-28-21.37-59.14-36.95-91-51.69-33.57-15.55-67.37-18.71-102.78-8a281.74,281.74,0,0,1-78.13,11.69c-17.3.25-34.76.48-51.75,4.63-30.65,7.49-46.24,31.72-40.22,62.63,5.73,29.38,32.94,61.19,76.13,48.46,9.72-2.86,19.4-5.91,29-9.23,36.17-12.55,73-20.18,111.58-16.27,24.45,2.47,48.66,6.59,72.9,10.51,35.59,5.76,71.2,11.77,107.49,8.72C706.88,571,726.46,567.46,745.24,553.07Zm76.46,2.08c2.2,3.06,5.49,3.74,8.33,4.93,27.24,11.39,55.85,13.6,84.88,11.93,37.91-2.18,75.13-9.56,112.43-16.09,31-5.42,61.83-8.09,93.12-2.69,25.62,4.42,50.2,12.36,74.8,20.39,11.2,3.65,22.78,6.86,34.59,4.35,24.83-5.29,37.54-23.46,44.47-45.82,8.85-28.53-5.06-53.92-33.32-63.38a126.8,126.8,0,0,0-32.14-6.16c-38.34-2.5-76.71-4.24-114.08-14.82-35.48-10-69.15-4.59-101,14-18.68,10.93-37.1,22.26-54.66,34.88C909.47,518,878.25,536,842.49,545.31,835.15,547.21,827.86,550,821.7,555.15Zm241.89,390.46a67.63,67.63,0,0,0-5.57-32.5,214.38,214.38,0,0,0-15.67-29.7,424,424,0,0,1-47.6-108c-4.14-14.65-10.9-25.17-24.88-31.5-7-3.16-13.22-8-19.64-12.33-42.59-28.6-84.83-57.65-118.6-97-1.26-1.48-2.45-4.25-5-2.81A5.9,5.9,0,0,0,824,637.2a48.52,48.52,0,0,0,.69,5.55c6.93,39.26,22.9,74.91,44.28,108.16,34.63,53.87,70.59,106.87,103.79,161.66a230.33,230.33,0,0,0,31.09,40.65c7.46,7.74,15.35,15.4,26,18.14,25.69,6.61,31.85-.41,33.67-21.45C1063.61,948.05,1063.57,946.18,1063.59,945.61Zm-560.27-1.26a44.7,44.7,0,0,0,2,16.62c3.42,10.53,6.29,12.55,17.16,13.32,14,1,25.52-4.29,35.63-13.47,9.58-8.7,17.08-19.12,24.05-29.87q58-89.31,115.64-178.81a295.79,295.79,0,0,0,27.06-52.59c7.9-20.25,13.44-41.07,15.17-62.8.21-2.61.56-5.92-2.27-7.12s-4,2-5.31,3.78c-17.57,25-40.32,44.72-64.52,63-26.46,19.94-54.62,37.41-81.82,56.3-6.44,4.47-10.8,9.48-12.31,17.59-1.61,8.6-4.74,16.94-7.52,25.29-11.5,34.6-28.22,66.78-46,98.47C511.52,909.72,504.29,926,503.31,944.35Zm-65.7-164.72c18.88.35,35.81-1.16,52.54-5.07,31-7.23,59.47-20.42,87.18-35.53,34.22-18.67,68.39-37.46,98.5-62.6,19.4-16.2,35.13-35.11,42.16-60,1.1-3.88,4.56-8.65,1.19-12-3.6-3.59-8.72-.65-12.82.82-18.32,6.59-36.53,13.48-54.77,20.29a96.91,96.91,0,0,1-55.88,4.12c-9.12-2-18.31-3.69-27.52-5.23-32.24-5.42-52,3.7-68.64,31.65-7.82,13.1-13.56,27.17-19.39,41.22C468.47,725.49,460.43,755.53,437.62,779.63Zm690.06-3.32a37.7,37.7,0,0,0-7.22-13.61c-13-16.61-21.43-35.58-29.28-54.92Q1084,690,1075.92,672.51c-6-12.93-13.63-24.75-24.12-34.62a48.69,48.69,0,0,0-32.49-13.6,130.81,130.81,0,0,0-34.24,3c-31.94,7.26-62.43,4-92.09-9.93a229,229,0,0,0-36.77-13.55c-10.57-2.89-13.51-.24-12.21,10.82A43.43,43.43,0,0,0,848.54,629a106.36,106.36,0,0,0,17.17,24c19,20.66,41.85,36.37,65.58,50.95,40.3,24.75,81,48.65,126.55,62.93C1080.37,774,1103.28,778.14,1127.68,776.3Zm112.51-317.09c20,2.28,36.06-3.46,45.94-22a68.73,68.73,0,0,0,7.45-43.42c-2.6-17.47-11.91-29.16-29.37-34.14a286,286,0,0,0-36-7.72c-23.82-3.59-47.79-4.56-71.86-4.3-18.13.2-33.82,5.94-47.43,18.09-11.37,10.15-23.3,19.71-30.57,33.49-6.27,11.87-3.75,20.84,7.47,28.09a65.89,65.89,0,0,0,19,8.31C1149.32,447.39,1194.72,453.79,1240.19,459.21Zm-847-107.81a339.77,339.77,0,0,0-46.91,3.12c-16.61,2.26-33.5,3.35-49.32,9.64-11.8,4.69-22,11.59-26.22,24.15-6.94,20.65-2.47,40.3,8.38,58.24,9.41,15.57,25.67,16.51,41.84,16.15a75.84,75.84,0,0,0,11.16-.8q48.08-8.26,96.12-16.74c15.78-2.78,31.49-6,45.92-13.31,16.23-8.27,19.5-19.59,8.3-33.61C458.7,368.57,429.79,348.26,393.19,351.4Zm49.76,594.75c28.89.85,43.94-7,59.62-31.06,1.89-2.91,3.74-5.85,5.41-8.89,15.88-29,30.79-58.55,45-88.41,6.68-14,11.69-28.67,13.32-44.26,1.08-10.38.39-11.06-9.25-7.15a621.77,621.77,0,0,0-81.53,40.82c-24.93,14.68-48.51,31.23-67.91,53-8.75,9.83-16.33,20.44-20,33.35-4.95,17.31,0,31.08,15.11,40.88C414.91,942.37,428.52,945.74,442.95,946.15Zm676.33-1.77a85.57,85.57,0,0,0,19.09-1.77c39.69-7.89,52.7-37.88,31.13-72-9.69-15.32-22.73-27.54-37-38.52-35.36-27.3-75.1-46.68-116.07-63.76-5-2.07-11-8-15.19-4.33-5.32,4.61-.78,12.07,1.05,17.95,8.59,27.59,20.91,53.63,33.91,79.34,9.75,19.3,20,38.33,33,55.73C1081.65,933.8,1097.9,943.83,1119.28,944.38ZM327.88,807.61c50.26,1.32,114.16-39.07,134.18-85.1a84.67,84.67,0,0,0,6.63-26.25c.93-10.11-.9-11.89-11-9.19a264.25,264.25,0,0,1-35.37,6.39c-24.85,3.13-50,4.25-74.39,10.44-28.35,7.2-48,25.27-59.22,51.7-9.63,22.65,1,42.94,24.25,49.29C317.81,806.22,322.9,806.73,327.88,807.61Zm910.43-3.69c1.33,0,2.67.12,4,.11,33.39-.34,49.11-24.76,34.18-54.7-12.71-25.47-32.47-43.52-61.25-49.53-23.34-4.88-47.17-5.14-70.86-6.59-11.44-.7-22.88-1.48-33.9-5.24-4.64-1.58-10.09-5.27-14.28-1.16s-.93,10.06.19,15.15a14.54,14.54,0,0,0,.53,1.51C1116,759.56,1178.85,804.29,1238.31,803.92Zm9.28-453.74c5.06-.28,10.13-.42,15.18-.86A50.59,50.59,0,0,0,1307.88,310a74.75,74.75,0,0,0-.26-34.91c-4.87-20.07-17.71-31.7-37.92-35.21-19.2-3.34-37.71.37-55.95,6s-30.11,17.52-36.37,35.41c-4.87,13.91-7,28.47-10.74,42.66-1.08,4.12.57,5.59,4.38,6.68,13.08,3.72,26,7.94,39.08,11.72C1222.36,345.9,1234.52,350.17,1247.58,350.18Zm-932.09,2.24c7.76.09,15.6,0,23-2.19,18.68-5.43,37.19-11.42,55.82-17,4.07-1.22,3.78-3.46,2.87-6.7-3.16-11.29-6.44-22.57-9.06-34-6.44-28.07-24.73-43.19-52.17-48.45-15.41-2.95-30.82-2.82-46,1.55-11.77,3.4-22.42,8.86-29.29,19.57-18.13,28.27-8.33,63.93,21.61,79.21C292.77,349.74,303.88,352.09,315.49,352.42Zm732,265.76c7.06,6.11,10.75,13.41,14.69,20.54,3.49,6.3,6.84,12.68,10.52,18.87,6.34,10.66,15.66,17.81,27.87,19.74,36.64,5.79,73.39,11,110.6,11.08,11,0,21.84-1.43,32-6.06,7.25-3.3,10.26-8.63,8.94-16.74-2.31-14.17-9.24-25.41-20.43-34.17-10.47-8.21-22.47-13.26-35.21-16.64-31.44-8.34-63.41-8.06-95.44-5.19C1083.33,611.19,1065.68,613.52,1047.48,618.18Zm-529.24,1.65c-33.4-7.54-65.74-11-98.43-9.7-24.11.93-47.86,4.49-69.86,15.32-13.48,6.63-25.72,15.28-30.77,30-8.77,25.52-3.28,29.18,17.95,32.17,36.52,5.14,72.88,1.77,109.29-2.68,26.25-3.21,45-14.83,54.51-40.21C504.37,635.56,510,627.42,518.24,619.83ZM880.82,781.55c-3,5.83-2,10.89-1.62,15.79a400.56,400.56,0,0,0,21.17,99.88c9.54,27.49,19.77,54.67,35.54,79.36,6.35,9.94,13.43,19.36,23.72,25.63,16.2,9.88,31,2,31.81-16.89.51-12.51-3-24.29-7.63-35.72-9.65-23.84-22.91-45.72-37-67.15-18.59-28.32-38.69-55.62-56.31-84.58C887.39,792.73,884.37,787.53,880.82,781.55Zm-195.34,2.5c-1.75,2.24-3.35,4-4.58,5.91q-39,62-77.81,124a211.25,211.25,0,0,0-20.52,43.28c-3.38,9.86-6.28,19.86-6.39,30.41-.14,12.55,4.24,16.82,16.83,16.62,11.5-.18,20.22-6.07,28-13.75,12.9-12.76,21.86-28.23,29.44-44.49,22.73-48.79,33.54-100.48,36.81-153.94C687.4,789.78,687.88,787.3,685.48,784.05Zm391.12,1.78c5.63,3.41,11.3,6.77,16.89,10.25,26.82,16.69,51.28,36.42,74.5,57.77,10.8,9.93,21.91,19.57,35,26.49,6.72,3.55,13.73,5.87,21.49,3.24,21.42-7.25,30.1-38.76,15.27-55.74-6.22-7.12-13.93-12.38-22.18-16.86-25.19-13.68-52.45-20.68-80.59-24.77C1117.14,783.34,1097.23,782.78,1076.6,785.83ZM493.45,788a289.77,289.77,0,0,0-65.38,1.78c-27.57,3.75-54.75,9.08-79.57,22.56-9.24,5-17.53,11.25-23.22,20.34-9.12,14.59-6.37,34,6.44,46.1,11.84,11.18,26,11.4,41.42.43,10.5-7.47,19.3-16.83,28-26.24,13.64-14.8,28.41-28.21,45.86-38.39C462.39,805.6,478,796.87,493.45,788Zm196.72,77.7c11.06-22.8,23-45,34.46-67.47,12.6-24.74,24.6-49.74,31.61-76.79,5.63-21.73,6.63-43.74,4.07-66-.29-2.5-.18-6.2-3.16-6.76s-3.22,3.08-3.95,5.14A312.09,312.09,0,0,1,740.37,684c-12.83,27-27.33,53.12-38.12,81.06C689.72,797.57,684.42,830.83,690.17,865.71ZM806.3,649.46c-.22,1.23-.46,2.46-.66,3.69-5.27,33.31,2.41,64.74,14,95.58,13.56,36.15,33.27,69.24,51.51,103.05,2.84,5.26,5.58,10.56,9.45,17.9.21-7.36.58-12.28.46-17.2-.45-18.73-2.25-37.29-6.7-55.56C861.32,743.52,830.65,698.14,806.3,649.46Zm-609.58-404c14.18-.35,27.87-3,37.31-15.53,11.64-15.5,4.37-33.93-14.76-36.52-18.53-2.51-36.72.08-54.25,6.54-8,3-10.91,8.38-10,17,.8,7.32,4.58,13,10.15,17.52C174.24,241.83,184.91,244.68,196.72,245.47Zm1169-57.66c-12.56-.55-20,.56-27.14,3.63-16.72,7.22-20.15,22.59-8.07,36.12,15.6,17.47,49.31,18.89,66.26,2.81,5-4.74,7.78-10.65,9.87-17.12,2.46-7.6.22-12.69-6.8-16.41C1388.51,190.84,1376.34,188.46,1365.75,187.81Zm35.48-103.69c-9.4.15-17.13.54-24.69,2.31-8.62,2-17.08,4.54-23.57,11-6.23,6.22-5.74,10.67,1.58,15.48,7,4.59,14.85,7.21,22.89,9.14,16.19,3.9,32.53,6.21,49,1.88,11-2.9,17.37-9.3,17.71-17.07.35-8-5.12-14.1-16.31-18.24C1418.7,85.27,1409.17,84.49,1401.23,84.12ZM173,90.56c-15.79-.16-31.52.54-46.41,6.5-12.49,5-13.93,14.21-3.89,23.18a36.31,36.31,0,0,0,15.47,8.06c20.49,5.18,40.19,3.22,58.82-7.07a44.1,44.1,0,0,0,7.8-5.54c10.49-9.27,9-17-4.16-21.41C191.69,91.27,182.37,90.69,173,90.56Zm18.36,48.74c-20.86-.58-35.81-1.71-50,4.57-8.8,3.89-15,9.85-17.26,19.53-.86,3.76-.18,6.22,4.15,6.81,5.8.79,11.55,2.09,17.36,2.63,21.94,2,43.68,2,64.23-7.65,6.33-3,12.21-6.65,16.3-12.5,4.32-6.18,3.31-8.85-4.15-10.14A225.07,225.07,0,0,0,191.37,139.29Zm1203.9,30.87c13.91.77,27.06-1.49,39.14-8.89,4.73-2.9,5.29-6,1.85-10.25-4.54-5.64-10.59-8.89-17.22-11.11-24.42-8.18-49.17-8.57-74.05-2.42-4.58,1.13-11.79,1.71-12.4,5.73-.85,5.61,5.44,9.25,10.18,12.18C1358.83,165.33,1376.69,169.12,1395.27,170.16ZM505,605.64c2.37,3.24,5.16,3.32,7.63,4a307.16,307.16,0,0,0,88.5,11.43c26.57-.36,52.64-3.34,78-11.66,5.32-1.75,10.62-3.65,15-7.29,1.66-1.38,3.42-3.26,2.13-5.46-1.17-2-3.36-.71-5.11-.29a251.75,251.75,0,0,1-34.64,5.95c-42.3,4-84.72,2.8-127.12,2.84C521.45,605.18,513.56,605.47,505,605.64Zm553.74,1.48c-64.11-4.77-128.38-3.1-192.38-8.06C929.24,629.31,993.91,620.91,1058.71,607.12ZM197.44,321.48c16,.42,27-9.59,27.32-24.8S214.39,269.25,200,268.6c-15-.68-28.35,12.11-28.52,27.41C171.33,310.77,181.83,321.07,197.44,321.48Zm1193.4-30.6c.53-14.79-10.54-26.1-26-26.56-14.34-.43-26.61,12.09-27.28,27.85-.58,13.77,8.85,23.62,23.13,24.13C1377.32,316.89,1390.31,305.94,1390.85,290.88ZM1094.65,224c38.15-8.08,69.06-27.31,96.21-55.35C1158,168.54,1103.22,200.1,1094.65,224ZM372,170.47c25.09,31.61,75.39,56.51,96.15,51.83C442.62,193.83,411.35,176.28,372,170.47ZM260.22,136.3c-.26,5.68,4,13.56,13.36,18.73,8.55,4.74,18,6.15,27.41,8,5.45,1,7.13-.88,7.12-6.16,0-16.31-12.69-33.88-28.33-38.83C268.14,114.31,260.91,119.31,260.22,136.3Zm1001.19,22.09c19.89.1,34.3-9.21,38.9-25.6,1.62-5.75,4.91-13.22.21-17.34-5.94-5.21-14.16-3-21.21.34a37.49,37.49,0,0,0-10.36,7.42,54.58,54.58,0,0,0-14.62,26.19C1252.21,157.93,1252.52,158.34,1261.42,158.39Zm-930.93,65.2c2.89-.32,8-.59,12.93-1.48,9.3-1.66,10.4-4.94,4.62-12.73-12-16.18-48.77-19.54-63.65-6-3.29,3-3.41,4.73.67,7C298.59,217.71,312.81,222.62,330.48,223.58Zm902.8-3.54c16,.07,30.33-4.46,43-14.44,4.42-3.49,3.64-5.42-.85-7.8-16.57-8.78-33.25-8.14-50-.81a25.25,25.25,0,0,0-12.3,11c-2.36,4.23-1.3,7.08,2.94,9C1221.54,219.37,1227.36,219.89,1233.28,220Zm96.41,210.21c9.83-.1,18.31-2,24.8-8.92,8.73-9.34,5.83-21.32-6.25-25.36-10.13-3.39-19.59-1.56-27.77,5.3-6.35,5.32-10.14,12.45-7.54,20.58S1323.69,429.24,1329.69,430.26ZM227.48,399c-12.2-.27-20.21,4.92-22.06,13.14-1.73,7.64,3.5,15.35,13.27,19.31,7.69,3.12,15.5,3.66,23.27.3,8.6-3.72,11.43-11.45,7-19.63C243.94,403,235.58,399.59,227.48,399ZM1283.36,184c14-.37,27.41-3.65,35.88-17.27,3-4.77,3.31-8.21-4-8.76-9.92-.74-19.71-.86-29.4,1.8-8.37,2.29-16,5.68-22.15,12.15-3.62,3.84-2.93,6.23,1.84,8.15A56.9,56.9,0,0,0,1283.36,184ZM83.15,153.92a48.07,48.07,0,0,0,26.2-7.5c4.42-2.87,5.18-5.94,2.07-10.51-7.72-11.36-29-15.77-40.42-8.06-7,4.76-8.33,14.06-2.68,20.13C72.2,152.15,77.37,153.35,83.15,153.92Zm1390.2-5.5c9.74.61,17.91-2,22.83-11.18,3-5.61,1.65-10.2-3.45-13.85-10.06-7.19-32.58-4.65-40.85,4.61-5,5.55-4.41,10.5,1.86,14.65C1459.65,146.58,1466.34,148.13,1473.35,148.42ZM258.76,160.85c-2.16-.06-3.23-.17-4.29-.11-4.41.26-10.54-1.49-12.42,3-2.23,5.25,2.11,9.94,6,13.77a19.56,19.56,0,0,0,3.11,2.51c13,8.46,26.89,9.52,41.35,4.44,9-3.18,9.42-5.13,2.52-11.59C284.44,162.93,270.92,162.3,258.76,160.85ZM1326.65,689.61c-1-16.67-5.83-28.07-17.31-35.77-8.48-5.69-17-4.2-22.62,3.15-2.17,2.84-2.71,5.13-.44,8.45,8.2,12,18.75,20.82,32.44,25.95C1323.94,693.33,1327.11,693.19,1326.65,689.61ZM240.29,691.4c.14,2.09-1.38,6.24,3.41,4.45,11.19-4.19,23-7.92,30.33-18.17,4.24-5.89,8.89-13.31,4.56-20.28-3.9-6.26-17-4.28-24.77,2.28a34,34,0,0,0-8.16,10.74C242.34,676.92,241.1,684,240.29,691.4Zm-135.51-466c11.14.31,19.95-5.27,20.9-13.25,1-8.3-6.94-16.46-17.7-18.21-11.05-1.8-22.95,5.73-23.77,15-.78,8.8,7.65,15.79,19.78,16.39ZM235.83,558c9.81.2,18.8-7.3,18.91-15.77.1-8.15-10.68-16.53-21.36-16.6-9.48-.06-15.93,5.65-15.93,14.11A18.47,18.47,0,0,0,235.83,558ZM1476.34,204.44c.15-9.64-6.54-15.1-19-15.48-10.13-.31-16.26,5.77-16.34,16.21-.07,9.57,5.95,16.06,14.89,16C1467.92,221.2,1476.19,214.41,1476.34,204.44ZM1327.21,553.58c10.41.91,19.13-5.66,20.08-15.12a15.43,15.43,0,0,0-14-17.23c-10.71-.91-21.74,7.07-22.37,16.2C1310.35,545.91,1317.18,552.7,1327.21,553.58Zm143-460.63c9.51.33,16.56-2.79,19-7.71,2.13-4.22,1.31-8.25-1.15-12.06-6-9.2-19.74-12.45-28.93-6.66-5,3.14-8.42,7.56-7.89,13.77.5,5.83,5,8.53,9.86,10.31A78.54,78.54,0,0,0,1470.22,92.95ZM90.34,98.07c6.25,0,13.56-2.07,17.61-9.9a11.34,11.34,0,0,0-2.25-14C99.49,68,91.88,67.69,84.1,70.29,76,73,70.73,80.52,71.83,87S79.38,97.79,90.34,98.07Zm1215,353c-4.92-.12-9.49-.2-12,4s-.72,8.29,1.39,12.09a21.9,21.9,0,0,0,26.82,9.85c8.37-3.15,10.18-10.58,3.92-16.84C1319.85,454.57,1312.7,451.92,1305.38,451.11ZM249.76,481.6a26.29,26.29,0,0,0,11.73-1.71c3.61-1.56,7.54-2.88,8.36-7.61,2.81-16.22-3-21.08-18.73-15.47a32.91,32.91,0,0,0-7.11,3.49c-5.15,3.42-11.66,8.16-10.35,13.83C235.16,480.64,243.26,481.29,249.76,481.6ZM129.89,46.37c-6.79.05-12.65.74-17.46,4.64s-4.35,7.7,1.61,9.7a124.54,124.54,0,0,0,35.4,6.06c6.93.25,7-3.31,4.29-8C148.24,49.36,138.87,47.41,129.89,46.37ZM1416.58,61.52c10,.11,19.16-.87,27.59-5.43,2.79-1.51,6.13-3.23,5.77-6.88s-3.95-4.86-6.9-5.86c-10.83-3.65-21-1.91-30.16,4.79-3.75,2.73-7.37,6.7-5.67,11.34C1408.7,63.6,1413.82,60.5,1416.58,61.52ZM325.28,124.31c-.22,4.2,1.69,6.81,3.42,9.4,7.6,11.4,18.51,17.41,31.92,19,2.69.33,6.33,2.8,7.91-.71,1.17-2.61-1.22-5.57-3.13-7.78C355,132.08,341.27,126.52,325.28,124.31Zm873,26c16.85-1.54,29.78-9.16,37.86-24.25,1-1.84,3.06-4.48-1.78-4.7-12.91-.58-33.46,11.84-38.48,23.57C1194.73,147.45,1192.41,150.78,1198.23,150.28Zm-130,852.09c13.13,0,26.88-4.22,32.56-10.1,3.28-3.4,5.65-7-.61-9.9-11.31-5.17-30.55,2.12-35.86,13.37C1061.93,1000.83,1062.74,1003.28,1068.25,1002.37Zm-572.8,2.37c8.33.5,9.83-.84,7.74-6.89C499,985.78,477.7,978.35,467,985.2c-4.28,2.75-4.59,5.09-.22,8.34C475.39,999.92,484.72,1004,495.45,1004.74ZM208.6,348.66l0-.53c-3.69.42-7.45.56-11.07,1.33-8.16,1.73-9.87,7.43-4.37,13.91,5.88,6.93,17.92,8.09,25.49,2.27,3.68-2.83,7.22-6.54,6.16-11.35-1.12-5.05-6.49-4.69-10.58-5.43A38,38,0,0,0,208.6,348.66Zm1150.54-5.29c-5.41-.14-10.64.71-15.19,3.76-3.95,2.65-5.76,6.28-3.18,10.91s14.31,9.11,20.88,7.31c5.84-1.6,8.08-7.26,10.68-12,1.43-2.62-.48-5.09-2.71-6.83C1366.54,344.14,1362.93,343.43,1359.14,343.38ZM72.06,186.75c5-.93,11.94-.39,12.68-8.42.69-7.5-9.95-15.83-19.29-15.72-6.42.08-10.75,4.21-10.82,10.34C54.55,180.32,62.26,186.67,72.06,186.75Zm1418.58-5.55a19.8,19.8,0,0,0,8.05-1.46c7.45-3.34,11.72-11.26,9.2-17.32-2-4.89-9.25-6.59-17-3.84a23.52,23.52,0,0,0-5.65,2.89c-4.31,3-8,6.88-6.4,12.58S1485.69,180.83,1490.64,181.21ZM1136.31,990c9.77.2,16.76-4.43,16.71-11.07,0-6.08-6.42-11.14-14.18-11.24-8.74-.11-15.62,4.92-15.65,11.44S1128.18,989.88,1136.31,990ZM431.54,970.25c-8.69-.19-17.29,5-17.59,10.66s7.9,10.88,17.13,10.91c8,0,13.88-4.64,14-11.11C445.1,974.6,439.73,970.43,431.54,970.25Zm596.13,44.4c7.39.08,19.82-5.41,20.11-8.89.46-5.49-9.74-12.29-18.42-12.27-8.35,0-13.72,4.45-13.57,11.22C1015.92,1011,1020.25,1014.57,1027.67,1014.65ZM315,963.38c3.41-1.14,10.77,2.11,9.55-6.63-1-7.12-11.7-15.95-18.87-16.29-5.36-.25-9.16,2.29-11.17,7.23-1.91,4.69,1.14,7.55,4.3,10C303.27,961.25,308.51,963,315,963.38ZM539,1016.44c4.83-.51,9.91,1.06,11.59-4.46a16.91,16.91,0,0,0-2.43-15.25c-3.08-4.13-7.87-2.06-11.9-1.3a23.72,23.72,0,0,0-7.31,3.05c-3.47,2-7.25,4.45-7.07,8.93.2,4.88,4.81,5.91,8.53,7.13A77.56,77.56,0,0,0,539,1016.44Zm713.82-56.32a26.39,26.39,0,0,0,18.46-8.4c5-5.13,4.1-9.22-2.28-12.57-8.72-4.57-20.28.58-23.94,10.66C1242.53,956.87,1244.62,960,1252.86,960.12Zm-978.18-230c.29-9.77-3.94-19.08-8.44-18.58-5.7.63-11.51,11.57-10.25,19.61.89,5.65,3.2,10.64,9.89,10.16C272.3,740.89,274.55,736.12,274.67,730.16ZM1291.91,724c-.25,11.37,1.52,13.71,9.4,13.47,6.87-.22,8.9-3.6,8-13.07a24.87,24.87,0,0,0-2.89-9.83c-1.82-3.26-3.81-7.16-8.11-6.38-3.87.7-4.34,5-5.16,8.23A73.63,73.63,0,0,0,1291.91,724ZM354.42,975.46c-3.68.16-7.89.92-10.6,4.8a4.91,4.91,0,0,0,.69,6.62c5.94,5.78,13,9.37,21.43,9.16,3.56-.09,5.08-2.16,4.68-5.88A16.75,16.75,0,0,0,354.42,975.46Zm848.41,17c7-.19,13.6-.84,18.7-5.89,3.34-3.3,4.32-7.55,2.24-11.66-2.23-4.41-6.54-3.94-10.48-2.63-6.79,2.26-12.27,6.2-14.94,13.16C1196.61,990,1196.6,993.5,1202.83,992.47Zm104.93-85.39c-.06-4.86-.26-9.92-3.14-14.35-1.16-1.79-2.67-3.59-5-3.36s-2.44,2.66-2.83,4.32c-1.43,6.19-2.81,12.41-3.82,18.69a12.78,12.78,0,0,0,2,9.15c2.72,4.09,5.54,4.71,8.47.11C1306.22,917.26,1307,912.3,1307.76,907.08Zm16-793.36c4.67-.33,7.36-.27,9.95-.77,3.25-.62,6.21-2.12,6.89-5.75s-1.34-6.17-4.12-8c-6.06-4-12.7-3.25-19.23-1.66-2.67.65-3.78,3.1-2.9,5.71C1316.21,108.75,1317.43,115.18,1323.78,113.73ZM273.88,915.36c.21-6.94,0-13.31-4-18.8-1.24-1.71-2.76-3.55-5.15-3.06-2.2.45-2.34,2.77-2.71,4.5-1.57,7.32-2.16,14.73-.3,22.08,1,3.83,2.2,8.92,6.64,8.86,5.14-.08,4.34-5.64,5.08-9.33A36.67,36.67,0,0,0,273.88,915.36ZM151.55,254.91c7.42.15,9-1.19,9.12-7.52.11-9.11-3.27-15-8.94-14.74-4.41.17-10.3-1.42-10.86,5.89C140.25,246.56,145.75,254.79,151.55,254.91Zm1258.59-5c8.17.25,10.3-2.52,10.27-13.35,0-4.22,0-9-6.2-9.1a12.62,12.62,0,0,0-12.61,12.73C1401.71,246,1403.1,251.06,1410.14,250ZM235,100.08a48.3,48.3,0,0,0-6.25.66c-4,.91-6.84,3.15-7.13,7.52s2.51,6.82,6.25,8.24a14.15,14.15,0,0,0,7.87.78c6-1.21,12.68-3.27,12.19-10.3C247.42,100.23,240.2,101,235,100.08ZM1440.64,264.66c.11,3.78.2,8.15,6.51,7.94a14.41,14.41,0,0,0,13.72-14.65c-.06-3.74.65-8.25-5.75-8.16C1446.25,249.9,1440.79,255,1440.64,264.66ZM121.83,269.49c.38-7.45-5.36-14.45-12-14.95-5.45-.4-7.66,2.83-8,7.71-.55,7.54,5.44,14.58,12.42,15C120.08,277.51,121.2,273.57,121.83,269.49Zm1296.1,26.14c3-.42,7.45.61,7.37-4.63a12.84,12.84,0,0,0-7.13-11.64c-4.54-2.41-9.2-2.74-13.48.49s-5.68,6.74,0,10.35C1408.71,292.8,1412.8,295.14,1417.93,295.63ZM372.88,951c-2.5.93-7.16-2.9-8.42,1.94-1.06,4.09,2,7.51,5.6,9.78A22.06,22.06,0,0,0,383,966.29c2.9-.13,7.23,1.6,8.08-2.73.8-4.11-1.27-7.77-5.25-9.91S377.6,951.56,372.88,951ZM1092,1029.49c2.25-.19,4.72,0,7-.67,5.08-1.44,10.37-4.46,9.72-9.91s-6.86-4.57-11.19-4.54a21.56,21.56,0,0,0-7.66,1.67c-4,1.59-8.45,3.77-7.71,8.79C1082.9,1030.18,1088.3,1028.41,1092,1029.49Zm-620.08-12.55c-2.48-.07-3.81-.17-5.14-.14-2.71.06-5.63.26-6.74,3.18-1.3,3.42,1.34,5.43,3.63,7.22a24.78,24.78,0,0,0,14,5.14c3.68.24,7.07,0,7.15-5.07.06-4.19,1.3-8.8-5.4-9.07A50.52,50.52,0,0,1,471.92,1016.94ZM145.2,300.18c8.76.27,15.53-4.6,15.32-10.54-.19-5.45-3.85-7.17-8.6-7.31-6.8-.21-13.86,6-13.66,11.93C138.43,299.31,142.1,300,145.2,300.18Zm1035.94,663c6.34-.45,12.28-.58,17.22-4.37,2.15-1.65,4.26-3.61,3.56-6.61s-3.34-3.92-6.13-4.26a19.49,19.49,0,0,0-18.4,7.35c-1.35,1.64-2.87,3.66-2,5.79C1176.45,963.89,1179.35,963,1181.14,963.2Zm-774.95,39.12c-2.31.28-5-1-6.19,1-1.44,2.4.91,4.44,2.23,6.25,4.08,5.59,10,8.48,16.46,10.33,2,.58,4.24,1,5.95-.79,2.07-2.2.83-4.63-.18-6.64C420.65,1004.84,413.43,1003.25,406.19,1002.32ZM170.93,406c.73,11.47,2.86,20.42,12.84,25.27,1.84.89,4,2.5,6,1.14s1-3.89.62-5.92C188.58,416,180.76,411.28,170.93,406Zm991.42,593.8c-7.33.38-14.22,1.82-17.85,9.36-2.91,6-1.77,7.71,4.67,7.24a23.18,23.18,0,0,0,17.1-8.82c1.32-1.65,2.71-3.53,1.72-5.75C1166.94,999.41,1164.51,999.9,1162.36,999.77Zm-921-180.32c4.79.41,8.95.35,8.77-6.09-.17-5.95-6.85-14.84-11.62-14.82-5.1,0-5.41,4.35-4.77,7.5C234.81,811.18,231.74,819.28,241.38,819.45ZM1333.82,804.3c.14-4.07.56-8.07-3-9.86s-5.49,2.13-7.9,3.93a19.49,19.49,0,0,0-2.79,2.86c-3,3.44-4.54,7.28-2.43,11.73a5.63,5.63,0,0,0,5.93,3.22c4.89-.39,7.54-3.58,9.17-7.81A31.16,31.16,0,0,0,1333.82,804.3ZM1516,107.82c5.75-1.13,13.69.18,15.39-7,1.06-4.48-4.6-7.18-9.59-7.45-6.39-.35-14.18,4.63-14.2,9.38C1507.6,108.67,1512.65,106.81,1516,107.82ZM1389.69,404.65c-3.11,2.09-6.51,3.88-9.3,6.36a20.75,20.75,0,0,0-7.06,13.12c-.37,3-.12,5.39,4.22,4.23C1388.07,425.53,1393.67,413.47,1389.69,404.65ZM45.55,113.26c3.53,0,7.67.83,6.9-3.59-.81-4.62-1.66-10.34-7.76-11.5-4.76-.91-17.17,6.11-15.85,8.42C32.56,113.14,40.23,111.45,45.55,113.26Zm1206.55,3.09c11.75-2.39,21.18-4.76,27.88-12.88,1.15-1.4,2.47-3.23,1.42-5.07s-3.23-1.66-5-1.13C1266.42,100.21,1258.09,105.28,1252.1,116.35ZM1046.33,1026c-6-.48-7.35.09-7.74,2.93-.62,4.54,4.36,12.76,7.84,13,5.17.3,13.39-5,12.56-8.91C1057.51,1025.9,1050.28,1027.86,1046.33,1026Zm-474.95-2.67c-6.38.34-12.53.38-18.26,2.89-2.93,1.28-4.95,3.4-4,6.86,1.2,4.26,4.11,1.8,6.47,1.39,5.23-.9,10.49-1.68,15.69-2.72,3.72-.75,8.45-2.18,7.95-6.31C578.78,1021.51,573.89,1024.24,571.38,1023.31ZM307.46,119.45c-3-12.63-12.5-15.07-21.49-18.1-1.71-.58-4-1.83-5,.06-.66,1.24.08,3.77,1,5.22C287.6,115.76,297.25,116.7,307.46,119.45ZM271.13,767.53c-.51-4.91.51-11.18-3.69-13.32-3.38-1.73-5.55,4.43-8.49,6.82-2.72,2.22-4.8,5.29-2.17,9s6.15,7.07,10.23,6.59C271.49,776.06,270.12,770.7,271.13,767.53Zm-27,93.74c6.31.27,9.65-4.06,9.7-12.1,0-4.38-2.42-7.63-6.61-7.31-8.59.66-6.74,8.7-8.42,13.94C237.23,860.66,240.58,861.66,244.12,861.27Zm1052.22-99.64h-.18a20.8,20.8,0,0,0-.07,3.17c.39,3.1-2.15,7.81,2.66,8.69s7.71-2.68,9.4-7c1.61-4.07.6-7.86-1.67-11.31-1.76-2.67-4.16-5.86-7.39-5.14-3.41.76-2.16,4.86-2.62,7.59A29.34,29.34,0,0,0,1296.34,761.63ZM1328.4,730c.46,3.65-.6,9,5.48,9.28,5.42.21,6.48-4.59,7-8.91a15.48,15.48,0,0,0-2.66-11.31c-1.42-2-3.18-4.15-5.73-3.45-2.15.59-2.41,3.24-2.75,5.33C1329.3,723.8,1328.9,726.68,1328.4,730ZM524,1028.31c-5.47,1-13.16-.12-14.12,7.18-.69,5.19,5.67,8,10.18,8,5.63,0,8.47-4.86,9.18-10.33C529.67,1029.46,527.88,1027.7,524,1028.31Zm477.86-6.12a34,34,0,0,0-4.16-.09c-2.48.25-6.39-1.29-7,1.56-.81,3.66,3.09,5.26,6.11,6,6.42,1.48,13,2.51,19.46,3.62,1.42.24,3.26,1.26,4.18-.71.77-1.67-.55-3-1.44-4.27C1014.58,1022.27,1007.81,1023,1001.81,1022.19Zm312.3-175.81c-.28,7.19,2.05,11.17,6.7,11.09,4.21-.07,8.1-1.21,8.17-6.6.06-4.75-6-12.81-9.57-12.52C1314.18,838.78,1314.85,843.33,1314.11,846.38ZM225.92,731.24c.65,4.84-.73,12.14,5.43,12.4,6.31.27,6.2-6.76,5.85-11.77s-1.89-11.54-7.41-11.45C226,720.49,227,727.39,225.92,731.24ZM151.61,357.51c.32,3.41.57,7.38,5.3,7.17,6.2-.28,8.33-5,9-10.3.48-4-1.5-7-5.81-6.63C154.47,348.21,151.84,351.91,151.61,357.51Zm1125.51,532c.08-2.94.19-6-2.32-6.78-3.37-1.11-5.16,2.22-6.89,4.34-3.15,3.86-6.77,7.85-4.7,13.5.78,2.14,2.89,2.14,4.77,1.37C1273.72,899.52,1276.47,895,1277.12,889.47Zm-986.78,0c.67,3.78.46,8.54,3.32,12.34,2.05,2.73,5.09,4.35,8.43,2.7,3.59-1.78,2.24-5,1.18-7.7a22,22,0,0,0-8.1-10.7C292.17,884.07,290.11,884.58,290.34,889.45Zm-4.06-88.08a12.29,12.29,0,0,0-11.41-9.22c-2.31-.19-5.68,0-5.88,3.74s7.36,10.83,11.49,10.76C283.72,806.6,286.11,805.32,286.28,801.37ZM1369.51,467.64c-.39-1.4,1.34-4.17-2.2-4.55-4.64-.5-12.57,7-12.47,11.84.07,3.23,1.79,5.27,5,4.77C1366.32,478.7,1369.5,474.58,1369.51,467.64ZM1411,353.84c-1-3.85,1.44-9.93-5.64-10.18-3.58-.12-7.59.5-7.07,6.17s2.82,9.66,9,10.24C1412.62,360.57,1410.07,356.26,1411,353.84Zm-123.7,449.41c5.76-1.18,8.65-5,9.62-10.43.59-3.3-1.23-5.34-4.53-4.84-5.3.8-9.91,3-10.16,9.26C1282.09,800.36,1283.71,802.85,1287.28,803.25ZM208.18,480.06a12.51,12.51,0,0,0-11.71-12.88c-2.66-.13-3.06.92-3,3.21.23,6,6.22,13.57,11.06,14C208.4,484.77,207.86,482,208.18,480.06Zm69.61,363.84c.53,5.12,2,9.55,7.81,10.67,2.83.55,4.5-.59,4.63-3.83.19-5.18-4.71-13.91-8.08-13.54C278.25,837.63,278.6,841.24,277.79,843.91Zm1010-3.93c-1.21-2,2-6.92-1.95-6.73-6.46.32-7.7,6.2-8,11.74-.12,2.44-1.14,5.7,3.22,5.63C1288.4,850.49,1287.28,844.9,1287.83,840ZM1510.22,58.17c7.5,1.67,13.46.69,19.41.22,1.59-.13,3.48-.35,3.74-2.19s-1.43-2.74-2.92-3.26C1523.18,50.4,1516.64,51.21,1510.22,58.17ZM229,770.92c2.67-.95,7.3.06,7-5.12a6.48,6.48,0,0,0-6.83-6.42c-4.26-.05-7.36,2.11-7.5,6.51S225.57,770.06,229,770.92ZM346.67,932.4c-.14-3-9.31-10.34-12.16-10.34-2.51,0-2.53,1.87-2.06,3.27,1.45,4.32,1.47,10.14,7.49,10.78C342.31,936.36,345.78,935.42,346.67,932.4Zm879-.33c7.8-.12,8.63-.74,8.21-7.15-.13-2,1.42-5.13-2.29-5.71-2.42-.38-12.42,8.82-11.76,10.91C1220.87,933.31,1223.87,931.52,1225.7,932.07ZM49.14,62.13a25.57,25.57,0,0,0-16.46-5.26c-2.19,0-4.59,1-4.65,3.5s2,3.66,4.29,4C37.65,65.1,42.94,65.15,49.14,62.13ZM1343.19,761.85c-.63-3.59-2.79-6.49-6.09-6.39-3.88.11-5.34,4-6,7.34-.66,3.11,1.63,4.33,4.34,4.11C1338.8,766.63,1342.43,766.3,1343.19,761.85Z" transform="translate(-10.12 -30.4)" style="fill:#ddd"/></svg>